<svg width="390" height="200" viewBox="0 0 390 200" fill="none" xmlns="http://www.w3.org/2000/svg">
<path d="M327.695 13.7905L327.695 13.7909C339.229 21.1028 352.358 29.4246 377.26 29.4246C381.569 29.4246 385.625 29.1915 389.5 28.7076V199.5H0.5V28.7358C4.10736 29.1733 8.06164 29.4246 12.41 29.4246C37.3052 29.4246 50.4336 21.1072 61.9556 13.8069L61.9557 13.8068L61.9677 13.7992L61.9678 13.7991L61.9714 13.7969L61.9714 13.7968C67.3998 10.3525 72.6294 7.03593 79.0939 4.57322C85.5508 2.1134 93.2569 0.5 103.62 0.5C113.984 0.5 121.693 2.11376 128.151 4.57279C134.616 7.0347 139.843 10.3493 145.262 13.789L145.264 13.7902L145.265 13.7909C156.799 21.1027 169.928 29.4246 194.83 29.4246C219.725 29.4246 232.854 21.1072 244.376 13.8068L244.376 13.8067L244.388 13.7991L244.388 13.799C249.812 10.3542 255.039 7.03716 261.504 4.57403C267.962 2.11377 275.671 0.5 286.04 0.5C296.409 0.5 304.121 2.11377 310.58 4.57281C317.046 7.03471 322.273 10.3493 327.692 13.789L327.695 13.7905Z" fill="white" stroke="white"/>
</svg>
