<svg width="284" height="454" viewBox="0 0 284 454" fill="none" xmlns="http://www.w3.org/2000/svg">
<path d="M0 47L18.2358 412.63C18.2358 435.474 74.0072 453.996 142.797 453.996C211.587 453.996 267.358 435.474 267.358 412.63L283.152 47H0Z" fill="#FFF9F8"/>
<path d="M28.2557 387.365L12.502 113.632H270.651L254.086 387.365H28.2557Z" fill="#FAE0C5"/>
<path d="M141.581 132.465C212.864 132.465 270.65 124.73 270.65 115.189C270.65 105.648 212.864 97.9131 141.581 97.9131C70.298 97.9131 12.5117 105.648 12.5117 115.189C12.5117 124.73 70.298 132.465 141.581 132.465Z" fill="#CB935A"/>
<path d="M266.729 171.188C261.583 172.213 258.179 174.324 254.42 176.685C248.686 180.273 242.192 184.334 229.792 184.334C217.391 184.334 210.887 180.263 205.163 176.685C199.905 173.389 195.356 170.545 185.722 170.545C176.087 170.545 171.548 173.389 166.28 176.685C160.546 180.273 154.052 184.334 141.652 184.334C129.251 184.334 122.747 180.263 117.023 176.685C111.765 173.389 107.216 170.545 97.5919 170.545C87.9674 170.545 83.4186 173.389 78.1606 176.685C72.4264 180.273 65.9325 184.334 53.5321 184.334C41.1317 184.334 34.6276 180.263 28.9035 176.685C25.1044 174.304 21.67 172.163 16.4424 171.158L29.3797 404.63H29.4709C32.7432 426.228 81.514 443.363 141.186 443.363C200.857 443.363 249.628 426.228 252.901 404.63H253.174L266.74 171.188H266.729Z" fill="url(#paint0_linear_1167_7011)"/>
<path d="M29.5626 404.59C32.8349 426.188 81.6056 443.323 141.277 443.323C200.949 443.323 249.72 426.188 252.992 404.59H253.266L262.08 252.966C259.324 254.061 256.994 255.498 254.522 257.046C248.788 260.634 242.294 264.694 229.894 264.694C217.493 264.694 210.989 260.624 205.265 257.046C200.007 253.749 195.458 250.905 185.824 250.905C176.189 250.905 171.65 253.749 166.382 257.046C160.648 260.634 154.154 264.694 141.754 264.694C129.353 264.694 122.849 260.624 117.125 257.046C111.867 253.749 107.318 250.905 97.6937 250.905C88.0693 250.905 83.5204 253.749 78.2624 257.046C72.5283 260.634 66.0343 264.694 53.6339 264.694C41.2335 264.694 34.7294 260.624 29.0053 257.046C26.4219 255.428 23.9905 253.93 21.0728 252.815L29.4815 404.58H29.5727L29.5626 404.59Z" fill="url(#paint1_linear_1167_7011)"/>
<defs>
<linearGradient id="paint0_linear_1167_7011" x1="284.854" y1="141.51" x2="-42.5655" y2="471.579" gradientUnits="userSpaceOnUse">
<stop stop-color="#875224"/>
<stop offset="0.26" stop-color="#AB7541"/>
<stop offset="0.46" stop-color="#C28B53"/>
<stop offset="0.6" stop-color="#CB935A"/>
<stop offset="0.74" stop-color="#AB733E"/>
<stop offset="0.84" stop-color="#99622F"/>
</linearGradient>
<linearGradient id="paint1_linear_1167_7011" x1="266.163" y1="203.228" x2="-61.2569" y2="533.286" gradientUnits="userSpaceOnUse">
<stop stop-color="#875224"/>
<stop offset="0.36" stop-color="#905A29"/>
<stop offset="0.84" stop-color="#99622F"/>
</linearGradient>
</defs>
</svg>
