<svg width="308" height="71" viewBox="0 0 308 71" fill="none" xmlns="http://www.w3.org/2000/svg">
<g filter="url(#filter0_d_1067_6459)">
<rect x="4" y="19" width="300" height="48" rx="20" fill="white" shape-rendering="crispEdges"/>
<circle cx="154.5" cy="19.5" r="15.5" fill="white"/>
<path d="M154.442 26.2832C153.453 26.2832 152.524 26.0941 151.653 25.7158C150.783 25.3421 150.015 24.8226 149.35 24.1572C148.684 23.4964 148.162 22.7308 147.784 21.8604C147.41 20.9899 147.224 20.0579 147.224 19.0645C147.224 18.0755 147.41 17.1458 147.784 16.2754C148.162 15.4049 148.682 14.637 149.343 13.9717C150.008 13.3063 150.776 12.7868 151.646 12.4131C152.521 12.0348 153.453 11.8457 154.442 11.8457C155.431 11.8457 156.361 12.0348 157.231 12.4131C158.106 12.7868 158.874 13.3063 159.535 13.9717C160.201 14.637 160.722 15.4049 161.101 16.2754C161.479 17.1458 161.668 18.0755 161.668 19.0645C161.668 20.0579 161.479 20.9899 161.101 21.8604C160.722 22.7308 160.201 23.4964 159.535 24.1572C158.874 24.8226 158.109 25.3421 157.238 25.7158C156.368 26.0941 155.436 26.2832 154.442 26.2832ZM154.442 24.4854C155.194 24.4854 155.898 24.3441 156.555 24.0615C157.211 23.7835 157.787 23.3984 158.284 22.9062C158.781 22.4095 159.168 21.833 159.446 21.1768C159.729 20.5205 159.87 19.8164 159.87 19.0645C159.87 18.3125 159.729 17.6107 159.446 16.959C159.164 16.3027 158.774 15.7262 158.277 15.2295C157.781 14.7327 157.204 14.3454 156.548 14.0674C155.896 13.7848 155.194 13.6436 154.442 13.6436C153.69 13.6436 152.986 13.7848 152.33 14.0674C151.678 14.3454 151.104 14.7327 150.607 15.2295C150.111 15.7262 149.723 16.3027 149.445 16.959C149.167 17.6107 149.028 18.3125 149.028 19.0645C149.028 19.8164 149.167 20.5205 149.445 21.1768C149.723 21.833 150.111 22.4095 150.607 22.9062C151.104 23.3984 151.681 23.7835 152.337 24.0615C152.993 24.3441 153.695 24.4854 154.442 24.4854ZM153.554 12.4336V11.1689C153.554 10.9183 153.643 10.7087 153.82 10.54C153.998 10.3669 154.205 10.2803 154.442 10.2803C154.688 10.2803 154.898 10.3669 155.071 10.54C155.244 10.7087 155.331 10.9183 155.331 11.1689V12.4336H153.554ZM159.029 13.8008L159.699 13.1582C159.891 12.9759 160.118 12.8848 160.383 12.8848C160.624 12.8848 160.825 12.9668 160.984 13.1309C161.148 13.2949 161.23 13.4954 161.23 13.7324C161.23 13.974 161.13 14.195 160.93 14.3955L160.212 15.1133L159.029 13.8008ZM154.442 20.377C154.082 20.377 153.775 20.2493 153.52 19.9941C153.269 19.7344 153.144 19.4268 153.144 19.0713C153.144 18.8343 153.201 18.6178 153.314 18.4219C153.433 18.2214 153.588 18.0618 153.779 17.9434V15.1816C153.779 14.9948 153.843 14.8376 153.971 14.71C154.098 14.5824 154.256 14.5186 154.442 14.5186C154.629 14.5186 154.786 14.5824 154.914 14.71C155.042 14.8376 155.105 14.9948 155.105 15.1816V17.9502C155.301 18.0641 155.456 18.2191 155.57 18.415C155.689 18.611 155.748 18.8298 155.748 19.0713C155.748 19.4313 155.62 19.7389 155.365 19.9941C155.115 20.2493 154.807 20.377 154.442 20.377Z" fill="#F94F02"/>
</g>
<defs>
<filter id="filter0_d_1067_6459" x="0" y="0" width="308" height="71" filterUnits="userSpaceOnUse" color-interpolation-filters="sRGB">
<feFlood flood-opacity="0" result="BackgroundImageFix"/>
<feColorMatrix in="SourceAlpha" type="matrix" values="0 0 0 0 0 0 0 0 0 0 0 0 0 0 0 0 0 0 127 0" result="hardAlpha"/>
<feOffset/>
<feGaussianBlur stdDeviation="2"/>
<feComposite in2="hardAlpha" operator="out"/>
<feColorMatrix type="matrix" values="0 0 0 0 0 0 0 0 0 0 0 0 0 0 0 0 0 0 0.25 0"/>
<feBlend mode="normal" in2="BackgroundImageFix" result="effect1_dropShadow_1067_6459"/>
<feBlend mode="normal" in="SourceGraphic" in2="effect1_dropShadow_1067_6459" result="shape"/>
</filter>
</defs>
</svg>
