<svg width="284" height="454" viewBox="0 0 284 454" fill="none" xmlns="http://www.w3.org/2000/svg">
<path d="M0 47L18.2359 412.63C18.2359 435.474 74.0072 453.996 142.797 453.996C211.587 453.996 267.358 435.474 267.358 412.63L283.152 47H0Z" fill="#FFF9F8"/>
<path d="M28.2557 387.365L12.502 113.632H270.651L254.086 387.365H28.2557Z" fill="url(#paint0_linear_1167_7044)"/>
<path d="M29.5626 404.59C32.8349 426.188 81.6056 443.323 141.277 443.323C200.949 443.323 249.72 426.188 252.992 404.59H253.266L262.08 252.966C259.324 254.061 256.994 255.498 254.522 257.046C248.788 260.634 242.294 264.694 229.894 264.694C217.493 264.694 210.989 260.624 205.265 257.046C200.007 253.749 195.458 250.905 185.824 250.905C176.189 250.905 171.65 253.749 166.382 257.046C160.648 260.634 154.154 264.694 141.754 264.694C129.353 264.694 122.849 260.624 117.125 257.046C111.867 253.749 107.318 250.905 97.6937 250.905C88.0693 250.905 83.5204 253.749 78.2624 257.046C72.5283 260.634 66.0343 264.694 53.6339 264.694C41.2335 264.694 34.7294 260.624 29.0053 257.046C26.4219 255.428 23.9905 253.93 21.0728 252.815L29.4815 404.58H29.5727L29.5626 404.59Z" fill="url(#paint1_linear_1167_7044)"/>
<path d="M141.581 132.465C212.864 132.465 270.65 124.73 270.65 115.189C270.65 105.648 212.864 97.9131 141.581 97.9131C70.298 97.9131 12.5117 105.648 12.5117 115.189C12.5117 124.73 70.298 132.465 141.581 132.465Z" fill="#CB935A"/>
<defs>
<linearGradient id="paint0_linear_1167_7044" x1="142" y1="114" x2="144.641" y2="442.979" gradientUnits="userSpaceOnUse">
<stop stop-color="#FAE0C5"/>
<stop offset="0.256881" stop-color="#AB7541"/>
<stop offset="0.52758" stop-color="#7D4D21"/>
</linearGradient>
<linearGradient id="paint1_linear_1167_7044" x1="142" y1="114" x2="144.641" y2="442.979" gradientUnits="userSpaceOnUse">
<stop stop-color="#FAE0C5"/>
<stop offset="0.256881" stop-color="#AB7541"/>
<stop offset="0.52758" stop-color="#7D4D21"/>
</linearGradient>
</defs>
</svg>
