<svg width="20" height="20" viewBox="0 0 20 20" fill="none" xmlns="http://www.w3.org/2000/svg">
<circle cx="10" cy="10" r="10" fill="white"/>
<g clip-path="url(#clip0_1167_6888)">
<path d="M11.897 14.6442L11.0746 14.0036L9.80843 13.0173C9.7374 12.9619 9.63523 13.0139 9.63523 13.1055V14.128C8.68195 14.049 7.79592 13.6305 7.1121 12.9289C6.34954 12.1464 5.92961 11.1062 5.92961 9.99962C5.92961 8.89306 6.34954 7.85282 7.1121 7.07037C7.13554 7.04632 7.15922 7.02263 7.18301 6.9993C7.29927 6.88572 7.2885 6.6922 7.16087 6.59222L6.59805 6.15137C6.49434 6.07022 6.34789 6.07933 6.25542 6.17372C6.25258 6.17664 6.24962 6.17955 6.24678 6.18259C5.76387 6.67811 5.38455 7.25538 5.11959 7.89826C4.84516 8.56421 4.70593 9.27123 4.70593 9.99975C4.70593 10.7283 4.84516 11.4353 5.11959 12.1012C5.38455 12.7441 5.76387 13.3214 6.24678 13.8169C6.7297 14.3124 7.29229 14.7016 7.91881 14.9735C8.46624 15.2111 9.04221 15.3495 9.63511 15.3872V16.3594C9.63511 16.451 9.73728 16.503 9.80832 16.4476L11.3881 15.217L11.8968 14.8207C11.9538 14.7764 11.9538 14.6886 11.8968 14.6443L11.897 14.6442Z" fill="#F94C01"/>
<path d="M14.8804 12.1014C15.1549 11.4354 15.294 10.7284 15.294 9.99987C15.294 9.27136 15.1548 8.56434 14.8804 7.89838C14.6154 7.25551 14.2361 6.67824 13.7532 6.18272C13.2703 5.6872 12.7077 5.29798 12.0812 5.0261C11.5337 4.78849 10.9578 4.65012 10.3649 4.61246V3.64026C10.3649 3.54866 10.2627 3.49667 10.1917 3.55206L8.61186 4.78266L8.10313 5.17893C8.04619 5.22327 8.04619 5.31098 8.10313 5.35532L8.92547 5.99588L10.1917 6.98218C10.2627 7.03758 10.3649 6.98558 10.3649 6.89399V5.87149C11.3181 5.95045 12.2042 6.36895 12.888 7.07062C13.6505 7.85307 14.0705 8.89331 14.0705 9.99987C14.0705 11.1064 13.6505 12.1467 12.888 12.9291C12.8669 12.9508 12.8456 12.972 12.8242 12.9931C12.708 13.107 12.7186 13.3004 12.8462 13.4003L13.409 13.8411C13.5127 13.9222 13.6593 13.9132 13.7517 13.8186L13.7533 13.8169C14.2362 13.3214 14.6155 12.7441 14.8805 12.1012L14.8804 12.1014Z" fill="#F94C01"/>
</g>
<defs>
<clipPath id="clip0_1167_6888">
<rect width="10.5882" height="12.9412" fill="white" transform="translate(4.70593 3.5293)"/>
</clipPath>
</defs>
</svg>
